<?xml version="1.0" encoding="utf-8"?>
<!-- Generator: Adobe Illustrator 17.1.0, SVG Export Plug-In . SVG Version: 6.00 Build 0)  -->
<!DOCTYPE svg PUBLIC "-//W3C//DTD SVG 1.1//EN" "http://www.w3.org/Graphics/SVG/1.1/DTD/svg11.dtd">
<svg version="1.1" id="레이어_1" xmlns="http://www.w3.org/2000/svg" xmlns:xlink="http://www.w3.org/1999/xlink" x="0px"
	 y="0px" viewBox="0 0 77 77" enable-background="new 0 0 77 77" xml:space="preserve">
<g>
	<circle fill="#2F3F5E" cx="38.5" cy="38.5" r="36.1"/>
	<path fill="#F1E6D5" d="M58.3,32.6c0.7-6.3-3.5-11.9-9.4-12.6c-0.1,0-0.2,0-0.4,0c-0.1,0-0.1,0-0.2,0c-5.4-0.6-10.4,2.8-11.6,7.9
		c0,0.1-0.1,0.2-0.1,0.4c-0.5,1.9-1.3,3.1-2.6,4.2c-0.9,0.7-1.8,1.2-3,1.4c-0.6,0.1-1.3,0.2-2.1,0.2c-2.7,0-5.3,1.1-7.3,3.1
		c-2,2.1-3.2,4.9-3.1,7.9c0.1,5.4,4.7,9.9,10.8,10.6c0.1,0,10,2.7,21.8-7.3C56.2,43.5,58.3,34.7,58.3,32.6z"/>
	<path fill="none" stroke="#2F3F5E" stroke-width="3" stroke-linecap="round" stroke-linejoin="round" stroke-miterlimit="10" d="
		M32.3,38c0,0,7,0.4,9.1-7.4"/>
</g>
</svg>
