<?xml version="1.0" encoding="utf-8"?>
<!-- Generator: Adobe Illustrator 17.1.0, SVG Export Plug-In . SVG Version: 6.00 Build 0)  -->
<!DOCTYPE svg PUBLIC "-//W3C//DTD SVG 1.1//EN" "http://www.w3.org/Graphics/SVG/1.1/DTD/svg11.dtd">
<svg version="1.1" id="레이어_1" xmlns="http://www.w3.org/2000/svg" xmlns:xlink="http://www.w3.org/1999/xlink" x="0px"
	 y="0px" viewBox="0 0 77 77" enable-background="new 0 0 77 77" xml:space="preserve">
<circle fill="#A6A6A5" cx="38.5" cy="38.7" r="36.1"/>
<g>
	<path fill="#EDEDEC" d="M54.5,24.5h-18l-9.1,9v21.6c0,1,0.8,1.7,1.7,1.7h25.4c1,0,1.7-0.8,1.7-1.7V26.2
		C56.3,25.3,55.5,24.5,54.5,24.5z M42,54.1c-3,0-5.5-2.5-5.5-5.6c0-3.1,5.5-8.9,5.5-8.9s5.5,5.8,5.5,8.9
		C47.5,51.6,45.1,54.1,42,54.1z M54,35.3c0,0.4-0.3,0.6-0.6,0.6H30.7c-0.4,0-0.6-0.3-0.6-0.6v-1c0-0.4,0.3-0.6,0.6-0.6h22.7
		c0.4,0,0.6,0.3,0.6,0.6V35.3z"/>
	<path fill="#EDEDEC" d="M46.1,23.1h6.7c0.4,0,0.6-0.3,0.6-0.6v-2.3c0-0.4-0.3-0.6-0.6-0.6h-6.7c-0.4,0-0.6,0.3-0.6,0.6v2.3
		C45.4,22.8,45.7,23.1,46.1,23.1z"/>
	<path fill="#EDEDEC" d="M31.8,25.8l-4.3-4.7c-0.1-0.1-0.2-0.2-0.3-0.2c-0.2-0.1-0.3-0.2-0.6-0.2h-6.3c-0.5,0-0.9,0.4-0.9,0.9v1.5
		c0,0.5,0.4,0.9,0.9,0.9h5.4l3.8,4.1L31.8,25.8z"/>
</g>
</svg>
