<?xml version="1.0" encoding="utf-8"?>
<!-- Generator: Adobe Illustrator 17.1.0, SVG Export Plug-In . SVG Version: 6.00 Build 0)  -->
<!DOCTYPE svg PUBLIC "-//W3C//DTD SVG 1.1//EN" "http://www.w3.org/Graphics/SVG/1.1/DTD/svg11.dtd">
<svg version="1.1" id="레이어_1" xmlns="http://www.w3.org/2000/svg" xmlns:xlink="http://www.w3.org/1999/xlink" x="0px"
	 y="0px" viewBox="0 0 77 77" enable-background="new 0 0 77 77" xml:space="preserve">
<g>
	<circle fill="#2F3F5E" cx="38.5" cy="38.5" r="36.1"/>
	<g>
		<path fill="#F1E6D5" d="M54.5,24.3h-18l-9.1,9v21.6c0,1,0.8,1.7,1.7,1.7h25.4c1,0,1.7-0.8,1.7-1.7V26.1
			C56.2,25.1,55.5,24.3,54.5,24.3z M42,54c-3,0-5.5-2.5-5.5-5.6s5.5-8.9,5.5-8.9s5.5,5.8,5.5,8.9S45,54,42,54z M54,35.1
			c0,0.4-0.3,0.6-0.6,0.6H30.7c-0.4,0-0.6-0.3-0.6-0.6v-1c0-0.4,0.3-0.6,0.6-0.6h22.7c0.4,0,0.6,0.3,0.6,0.6V35.1z"/>
		<path fill="#F1E6D5" d="M46,23h6.7c0.4,0,0.6-0.3,0.6-0.6V20c0-0.4-0.3-0.6-0.6-0.6H46c-0.4,0-0.6,0.3-0.6,0.6v2.3
			C45.4,22.7,45.7,23,46,23z"/>
		<path fill="#F1E6D5" d="M31.8,25.6L27.5,21c-0.1-0.1-0.2-0.2-0.3-0.2c-0.2-0.1-0.3-0.2-0.6-0.2h-6.3c-0.5,0-0.9,0.4-0.9,0.9V23
			c0,0.5,0.4,0.9,0.9,0.9h5.4l3.8,4.1L31.8,25.6z"/>
	</g>
</g>
</svg>
