<?xml version="1.0" encoding="utf-8"?>
<!-- Generator: Adobe Illustrator 17.1.0, SVG Export Plug-In . SVG Version: 6.00 Build 0)  -->
<!DOCTYPE svg PUBLIC "-//W3C//DTD SVG 1.1//EN" "http://www.w3.org/Graphics/SVG/1.1/DTD/svg11.dtd">
<svg version="1.1" id="레이어_1" xmlns="http://www.w3.org/2000/svg" xmlns:xlink="http://www.w3.org/1999/xlink" x="0px"
	 y="0px" viewBox="0 0 77 77" enable-background="new 0 0 77 77" xml:space="preserve">
<g>
	<circle fill="#2F3F5E" cx="38.5" cy="38.5" r="36.1"/>
	<g>
		<path fill="#F1E6D5" d="M28.6,47.6c2.8,2.7,7.2,2.6,9.9-0.2l-10.1-9.6C25.8,40.5,25.9,44.9,28.6,47.6z"/>
		<path fill="#F1E6D5" d="M29.9,33.5c-0.3-0.3-0.7-0.3-1,0L28,34.4c-0.3,0.3-0.3,0.7,0,1l12.7,12c0.3,0.3,0.7,0.3,1,0l0.8-0.9
			c0.3-0.3,0.3-0.7,0-1L29.9,33.5z"/>
		<path fill="#F1E6D5" d="M58.6,28.4L46.3,16.8c-0.2-0.2-0.6-0.2-0.8,0L32.3,32.9c-0.2,0.2-0.2,0.6,0,0.8l10.3,9.7
			c0.2,0.2,0.6,0.2,0.8,0l15.2-14.2C58.8,29,58.8,28.6,58.6,28.4z M54.9,28.5L43,40.4c-0.2,0.2-0.4,0.2-0.6,0l-0.9-0.9
			c-0.2-0.2-0.2-0.4,0-0.6L53.5,27c0.2-0.2,0.4-0.2,0.6,0l0.9,0.9C55.1,28,55.1,28.3,54.9,28.5z"/>
		<path fill="#F1E6D5" d="M26.7,53.3l1.1-0.1c0.1,0,0.3-0.1,0.2-0.3l-0.2-2.1c0-0.1-0.1-0.3-0.3-0.2l-1.1,0.1
			c-0.1,0-0.3,0.1-0.2,0.3l0.2,2.1C26.5,53.2,26.6,53.3,26.7,53.3z"/>
		<path fill="#F1E6D5" d="M23.7,53.1c-0.1-0.1-0.3-0.1-0.4,0L22,54.8c-0.1,0.1-0.1,0.3,0,0.4l0.8,0.7c0.1,0.1,0.3,0.1,0.4,0l1.4-1.6
			c0.1-0.1,0.1-0.3,0-0.4L23.7,53.1z"/>
		<path fill="#F1E6D5" d="M27.3,57.4c-0.1-0.1-0.2-0.2-0.4-0.1l-1,0.5c-0.1,0.1-0.2,0.2-0.1,0.4l0.9,1.9c0.1,0.1,0.2,0.2,0.4,0.1
			l1-0.5c0.1-0.1,0.2-0.2,0.1-0.4L27.3,57.4z"/>
		<path fill="#F1E6D5" d="M30.4,54.1c-0.1-0.1-0.3-0.1-0.4,0l-0.8,0.8c-0.1,0.1-0.1,0.3,0,0.4l1.5,1.5c0.1,0.1,0.3,0.1,0.4,0
			l0.8-0.8c0.1-0.1,0.1-0.3,0-0.4L30.4,54.1z"/>
		<path fill="#F1E6D5" d="M22.3,49.6l-1.5-1.5c-0.1-0.1-0.3-0.1-0.4,0l-0.8,0.8c-0.1,0.1-0.1,0.3,0,0.4l1.5,1.5
			c0.1,0.1,0.3,0.1,0.4,0l0.8-0.8C22.4,49.8,22.4,49.7,22.3,49.6z"/>
	</g>
</g>
</svg>
