<?xml version="1.0" encoding="utf-8"?>
<!-- Generator: Adobe Illustrator 17.1.0, SVG Export Plug-In . SVG Version: 6.00 Build 0)  -->
<!DOCTYPE svg PUBLIC "-//W3C//DTD SVG 1.1//EN" "http://www.w3.org/Graphics/SVG/1.1/DTD/svg11.dtd">
<svg version="1.1" id="레이어_1" xmlns="http://www.w3.org/2000/svg" xmlns:xlink="http://www.w3.org/1999/xlink" x="0px"
	 y="0px" viewBox="0 0 77 77" enable-background="new 0 0 77 77" xml:space="preserve">
<circle fill="#A6A6A5" cx="38.7" cy="38.5" r="36.1"/>
<g>
	<path fill="#EDEDEC" d="M28.8,47.6c2.8,2.7,7.2,2.6,9.9-0.2l-10.1-9.6C26,40.5,26.1,44.9,28.8,47.6z"/>
	<path fill="#EDEDEC" d="M30.1,33.5c-0.3-0.3-0.7-0.3-1,0l-0.8,0.9c-0.3,0.3-0.3,0.7,0,1l12.7,12c0.3,0.3,0.7,0.3,1,0l0.8-0.9
		c0.3-0.3,0.3-0.7,0-1L30.1,33.5z"/>
	<path fill="#EDEDEC" d="M58.8,28.4L46.5,16.8c-0.2-0.2-0.6-0.2-0.8,0L32.5,32.9c-0.2,0.2-0.2,0.6,0,0.8l10.3,9.7
		c0.2,0.2,0.6,0.2,0.8,0l15.2-14.2C59,29,59,28.6,58.8,28.4z M55.1,28.5L43.2,40.4c-0.2,0.2-0.4,0.2-0.6,0l-0.9-0.9
		c-0.2-0.2-0.2-0.4,0-0.6L53.6,27c0.2-0.2,0.4-0.2,0.6,0l0.9,0.9C55.2,28,55.2,28.3,55.1,28.5z"/>
	<path fill="#EDEDEC" d="M26.9,53.3l1.1-0.1c0.1,0,0.3-0.1,0.2-0.3L28,50.7c0-0.1-0.1-0.3-0.3-0.2l-1.1,0.1c-0.1,0-0.3,0.1-0.2,0.3
		l0.2,2.1C26.7,53.2,26.8,53.3,26.9,53.3z"/>
	<path fill="#EDEDEC" d="M23.9,53.1c-0.1-0.1-0.3-0.1-0.4,0l-1.4,1.6c-0.1,0.1-0.1,0.3,0,0.4l0.8,0.7c0.1,0.1,0.3,0.1,0.4,0l1.4-1.6
		c0.1-0.1,0.1-0.3,0-0.4L23.9,53.1z"/>
	<path fill="#EDEDEC" d="M27.5,57.4c-0.1-0.1-0.2-0.2-0.4-0.1l-1,0.5c-0.1,0.1-0.2,0.2-0.1,0.4L27,60c0.1,0.1,0.2,0.2,0.4,0.1l1-0.5
		c0.1-0.1,0.2-0.2,0.1-0.4L27.5,57.4z"/>
	<path fill="#EDEDEC" d="M30.6,54.1c-0.1-0.1-0.3-0.1-0.4,0l-0.8,0.8c-0.1,0.1-0.1,0.3,0,0.4l1.5,1.5c0.1,0.1,0.3,0.1,0.4,0l0.8-0.8
		c0.1-0.1,0.1-0.3,0-0.4L30.6,54.1z"/>
	<path fill="#EDEDEC" d="M22.5,49.6L21,48.1c-0.1-0.1-0.3-0.1-0.4,0l-0.8,0.8c-0.1,0.1-0.1,0.3,0,0.4l1.5,1.5c0.1,0.1,0.3,0.1,0.4,0
		l0.8-0.8C22.6,49.9,22.6,49.7,22.5,49.6z"/>
</g>
</svg>
