<?xml version="1.0" encoding="iso-8859-1"?>
<!-- Generator: Adobe Illustrator 19.1.0, SVG Export Plug-In . SVG Version: 6.00 Build 0)  -->
<svg xmlns="http://www.w3.org/2000/svg" xmlns:xlink="http://www.w3.org/1999/xlink" version="1.1" id="Capa_1" x="0px" y="0px" viewBox="0 0 486.892 486.892" style="enable-background:new 0 0 486.892 486.892;" xml:space="preserve" width="512px" height="512px">
<g>
	<g>
		<path d="M484.834,318.162c0-15.444-24.132-15.444-24.132,0c0,21.236,0,42.472,0,63.708c0,17.375,0.965,33.785-21.236,35.715    c-33.785,2.896-69.5,0-103.285,0c-94.597,0-189.195,0-282.827,0c-2.896,0-6.757,0.965-9.653,0    c-16.41-2.896-17.375-15.444-17.375-27.993c0-24.132,0-47.299,0-71.431c0-15.445-24.132-15.445-24.132,0    c0,39.576-16.41,118.729,40.542,123.556c31.854,2.896,64.674,0,96.528,0c100.389,0,201.744,4.826,302.133,0    C501.243,438.822,484.834,357.739,484.834,318.162z" fill="#8e8e8e"/>
		<path d="M126.714,319.127c77.222-77.222,154.445-154.445,231.667-231.667c0.965,33.785,2.896,67.57,3.861,101.354    c0.965,15.444,25.097,15.444,24.132,0c-1.931-43.438-3.861-85.91-4.826-129.348c0-6.757-5.792-11.583-11.583-11.583    c-43.438-1.931-85.91-2.896-129.348-4.826c-15.444-0.965-15.444,23.167,0,24.132c33.785,0.965,67.57,2.896,101.354,3.861    c-77.222,77.222-154.445,154.445-231.667,231.667C98.721,313.336,115.131,330.711,126.714,319.127z" fill="#8e8e8e"/>
	</g>
	<g>
	</g>
	<g>
	</g>
	<g>
	</g>
	<g>
	</g>
	<g>
	</g>
	<g>
	</g>
	<g>
	</g>
	<g>
	</g>
	<g>
	</g>
	<g>
	</g>
	<g>
	</g>
	<g>
	</g>
	<g>
	</g>
	<g>
	</g>
	<g>
	</g>
</g>
<g>
</g>
<g>
</g>
<g>
</g>
<g>
</g>
<g>
</g>
<g>
</g>
<g>
</g>
<g>
</g>
<g>
</g>
<g>
</g>
<g>
</g>
<g>
</g>
<g>
</g>
<g>
</g>
<g>
</g>
</svg>
