<?xml version="1.0" encoding="utf-8"?>
<!-- Generator: Adobe Illustrator 17.1.0, SVG Export Plug-In . SVG Version: 6.00 Build 0)  -->
<!DOCTYPE svg PUBLIC "-//W3C//DTD SVG 1.1//EN" "http://www.w3.org/Graphics/SVG/1.1/DTD/svg11.dtd">
<svg version="1.1" id="레이어_1" xmlns="http://www.w3.org/2000/svg" xmlns:xlink="http://www.w3.org/1999/xlink" x="0px"
	 y="0px" viewBox="0 0 77 77" enable-background="new 0 0 77 77" xml:space="preserve">
<circle fill="#A6A6A5" cx="38.7" cy="38.7" r="36.1"/>
<path fill="#EDEDEC" d="M60.4,40.4c0-5-3.9-9-8.7-9c-0.9,0-1.7,0.1-2.5,0.4c-0.9-5.1-5.1-8.9-10.2-8.9c-3.5,0-6.6,1.8-8.5,4.6
	c-0.6-0.2-1.2-0.4-1.9-0.4c-2.9,0-5.3,2.5-5.3,5.5c0,0.4,0,0.8,0.1,1.2c-3.5,0.7-6.2,3.8-6.2,7.7c0,3.6,2.3,6.6,5.5,7.5h31.9
	C57.9,47.7,60.4,44.3,60.4,40.4z"/>
</svg>
