<?xml version="1.0" encoding="utf-8"?>
<!-- Generator: Adobe Illustrator 17.1.0, SVG Export Plug-In . SVG Version: 6.00 Build 0)  -->
<!DOCTYPE svg PUBLIC "-//W3C//DTD SVG 1.1//EN" "http://www.w3.org/Graphics/SVG/1.1/DTD/svg11.dtd">
<svg version="1.1" id="레이어_1" xmlns="http://www.w3.org/2000/svg" xmlns:xlink="http://www.w3.org/1999/xlink" x="0px"
	 y="0px" viewBox="0 0 77 77" enable-background="new 0 0 77 77" xml:space="preserve">
<g>
	<circle fill="#C5733B" cx="38.5" cy="38.5" r="36.1"/>
	<g>
		<path fill="#F1E6D5" d="M36.5,54.3c3.9,0.1,7.8-1.2,11-3.8c0.4-0.3,0.1-0.6,0.1-0.6L37.5,38.1c-0.4-0.2-0.4,0.2-0.4,0.3L36,53.8
			C36,53.8,36,54.2,36.5,54.3z"/>
		<path fill="#F1E6D5" d="M34.2,53.7l1.1-13.6c-0.1-0.3-0.4-0.1-0.5,0l-10.3,8.8c0,0-0.3,0.3,0,0.6c2.4,2.5,5.6,4.1,9.2,4.5
			C34.1,54.1,34.2,53.7,34.2,53.7z"/>
		<path fill="#F1E6D5" d="M49.7,48.6c3.1-2.8,4.9-6.5,5.4-10.3c0-0.5-0.4-0.6-0.4-0.6l-15.4-1.2c-0.1,0-0.5-0.1-0.4,0.3L49,48.6
			C49,48.6,49.3,48.9,49.7,48.6z"/>
		<path fill="#F1E6D5" d="M54.8,35.9c0,0,0.4,0,0.4-0.4c0.2-3.7-1-7.1-3.1-9.8c-0.3-0.3-0.6-0.1-0.6-0.1l-10.2,8.9
			c-0.1,0.1-0.4,0.3,0,0.5L54.8,35.9z"/>
		<path fill="#F1E6D5" d="M54.4,23c6.2,9.2,4.7,21.8-3.9,29.2s-21.3,7-29.4-0.5L19,53.5c9.3,8.8,23.9,9.3,33.8,0.8
			s11.6-23.1,4.2-33.6L54.4,23z"/>
	</g>
	<circle fill="#2F3F5E" cx="38.5" cy="38.5" r="36.1"/>
	<g>
		<path fill="#F1E6D5" d="M37.1,38.4L36,53.8c0,0,0,0.4,0.5,0.5c3.9,0.1,7.8-1.2,11-3.8c0.4-0.3,0.1-0.6,0.1-0.6L37.5,38.1
			C37.1,37.9,37.1,38.3,37.1,38.4z"/>
		<path fill="#F1E6D5" d="M34.8,40l-10.3,8.8c0,0-0.3,0.3,0,0.6c2.4,2.5,5.6,4.1,9.2,4.5c0.4,0.1,0.4-0.3,0.4-0.3l1.1-13.6
			C35.2,39.7,34.9,40,34.8,40z"/>
		<path fill="#F1E6D5" d="M49.7,48.6c3.1-2.8,4.9-6.5,5.4-10.3c0-0.5-0.4-0.6-0.4-0.6l-15.4-1.2c-0.1,0-0.5-0.1-0.4,0.3L49,48.6
			C49,48.6,49.3,48.9,49.7,48.6z"/>
		<path fill="#F1E6D5" d="M41.2,35l13.6,0.9c0,0,0.4,0,0.4-0.4c0.2-3.7-1-7.1-3.1-9.8c-0.3-0.3-0.6-0.1-0.6-0.1l-10.2,8.9
			C41.2,34.6,40.9,34.8,41.2,35z"/>
		<path fill="#F1E6D5" d="M57.1,20.7L54.4,23c6.2,9.2,4.7,21.8-3.9,29.2s-21.3,7-29.4-0.5L19,53.5c9.3,8.8,23.9,9.3,33.8,0.8
			C62.8,45.8,64.4,31.2,57.1,20.7z"/>
		<path fill="#F1E6D5" d="M26.8,38.2c0.6,0,1.1-0.1,1.6-0.4l7.4-2.6c0.2-0.1,0-0.2-0.1-0.3l-7.1-3.4c0,0-1.2-0.5-1.9-0.5
			c-2,0-3.6,1.6-3.5,3.6C23.2,36.7,24.8,38.2,26.8,38.2z"/>
		<path fill="#F1E6D5" d="M33.3,27.1l3.8,6.9c0.2,0.1,0.2,0,0.2-0.1l2.2-7.5c0,0,0.3-1.3,0.2-2c-0.3-1.9-2.2-3.2-4.1-2.9
			c-1.9,0.3-3.2,2.2-2.9,4.1C32.8,26.2,33,26.7,33.3,27.1z"/>
	</g>
</g>
</svg>
