<?xml version="1.0" encoding="utf-8"?>
<!-- Generator: Adobe Illustrator 17.1.0, SVG Export Plug-In . SVG Version: 6.00 Build 0)  -->
<!DOCTYPE svg PUBLIC "-//W3C//DTD SVG 1.1//EN" "http://www.w3.org/Graphics/SVG/1.1/DTD/svg11.dtd">
<svg version="1.1" id="레이어_1" xmlns="http://www.w3.org/2000/svg" xmlns:xlink="http://www.w3.org/1999/xlink" x="0px"
	 y="0px" viewBox="0 0 77 77" enable-background="new 0 0 77 77" xml:space="preserve">
<g>
	<circle fill="#2F3F5E" cx="38.5" cy="38.5" r="36.1"/>
	<g>
		<path fill="#F1E6D5" d="M42.3,17.3c0,0,3.9,1.3,5.9,6.7c-0.1,0.1,1.2-0.4,1.2-0.4s0,0,0,0c-0.6-4.4-5.7-8.6-8.5-7.8
			C40,16.5,42.3,17.3,42.3,17.3z"/>
		<path fill="#F1E6D5" d="M56.6,26.7c-1.4-2.9-4-2.2-4-2.2l-5.5,2.1c0,0-2.2,0.6-1.8,3.8c0.9,6.8-1.1,14-6.2,19.4
			c-3.8,4-7.7,5.8-13.8,7.2c-4.5,0.7-1.2,3.9,6.2,4.3c7.2,0.5,14.6-2.1,20-7.8C58.6,46,60.2,35.5,56.6,26.7z M48.5,52.7
			c0,0-0.2,0.1-0.3,0c-0.1-0.1-0.3-0.1-0.4-0.3c0,0-0.1-0.2,0-0.4c0.8-1.4,6.8-7.6,5.5-18.2c0-0.2-0.1-0.6,0.2-0.8
			c0.3-0.2,1-0.2,1.3,0c0.2,0.1,0.4,0.4,0.4,0.7C55.6,36.1,56.7,46.4,48.5,52.7z"/>
	</g>
</g>
</svg>
