<?xml version="1.0" encoding="utf-8"?>
<!-- Generator: Adobe Illustrator 17.1.0, SVG Export Plug-In . SVG Version: 6.00 Build 0)  -->
<!DOCTYPE svg PUBLIC "-//W3C//DTD SVG 1.1//EN" "http://www.w3.org/Graphics/SVG/1.1/DTD/svg11.dtd">
<svg version="1.1" id="레이어_1" xmlns="http://www.w3.org/2000/svg" xmlns:xlink="http://www.w3.org/1999/xlink" x="0px"
	 y="0px" viewBox="0 0 77 77" enable-background="new 0 0 77 77" xml:space="preserve">
<circle fill="#A6A6A5" cx="38.4" cy="38.5" r="36.1"/>
<g>
	<path fill="#EDEDEC" d="M39.9,25L29.7,50c0.4,0.3,0.8,0.6,1.2,0.8l10.5-25.6C40.9,25.1,40.4,25,39.9,25z"/>
	<path fill="#EDEDEC" d="M45.4,26.9L35,52.5c0.5,0.1,1,0.2,1.5,0.3l10.2-24.9C46.3,27.5,45.9,27.2,45.4,26.9z"/>
	<path fill="#EDEDEC" d="M62.6,37.8c0-1.2-1.3-2.3-3.2-2.8c1.1-2.1,1-4.2-0.2-5.2c-1.5-1.2-4.2-0.2-6,2.2c-0.8,1.1-1.3,2.2-1.5,3.3
		c-0.6-2.3-1.7-4.3-3.3-6l-9.6,23.5c6.6-0.3,12-5.2,13.1-11.5c0.2,0.7,0.5,1.3,0.8,2c1.5,2.6,4.1,3.9,5.7,2.9
		c1.5-0.9,1.7-3.2,0.6-5.6C61.1,40.2,62.6,39.1,62.6,37.8z"/>
	<path fill="#EDEDEC" d="M24.7,35c-0.2-1.1-0.7-2.2-1.5-3.3c-1.8-2.4-4.5-3.4-6-2.2c-1.3,1-1.3,3.3-0.1,5.4
		c-1.6,0.5-2.7,1.5-2.7,2.6c0,1.1,1.1,2.2,2.8,2.7c-1.1,2.3-0.9,4.7,0.6,5.6c1.6,1,4.2-0.3,5.7-2.9c0.3-0.6,0.6-1.2,0.8-1.7
		c0.5,2.8,1.8,5.3,3.6,7.3l9.7-23.6C31.4,25.1,26.3,29.3,24.7,35z"/>
</g>
</svg>
