<?xml version="1.0" encoding="utf-8"?>
<!-- Generator: Adobe Illustrator 17.1.0, SVG Export Plug-In . SVG Version: 6.00 Build 0)  -->
<!DOCTYPE svg PUBLIC "-//W3C//DTD SVG 1.1//EN" "http://www.w3.org/Graphics/SVG/1.1/DTD/svg11.dtd">
<svg version="1.1" id="레이어_1" xmlns="http://www.w3.org/2000/svg" xmlns:xlink="http://www.w3.org/1999/xlink" x="0px"
	 y="0px" viewBox="0 0 77 77" enable-background="new 0 0 77 77" xml:space="preserve">
<g>
	<circle fill="#2F3F5E" cx="38.5" cy="38.5" r="36.1"/>
	<g>
		<path fill="#F1E6D5" d="M32.8,34.4l-6.3-9.2c0,0,0,0-0.1,0c0,0-0.1,0.1-0.3,0.3L14.9,38c0,0.2,0,0.3,0.2,0.3l17.3-3.6
			C32.6,34.8,32.8,34.6,32.8,34.4z M24.4,34c-0.6,0.4-1.4,0.2-1.8-0.4c-0.4-0.6-0.2-1.4,0.4-1.8c0.6-0.4,1.4-0.2,1.8,0.4
			C25.1,32.8,25,33.6,24.4,34z"/>
		<path fill="#F1E6D5" d="M42.1,30.4l2-12.7c-3.9-0.2-7.8,0.9-11.3,3.2c-1.8,1.2-3.3,2.7-4.6,4.3l4.6,6.9
			C35.7,30.3,39.1,29.7,42.1,30.4z"/>
		<path fill="#F1E6D5" d="M37.3,49.2c-3-0.6-5.6-0.1-5.9,1.2c-0.2,1.1,1.4,2.5,3.8,3.2c-2,1.6-3.1,3.4-2.4,4.4
			c0.7,1.1,3.4,0.6,5.9-1.1c2.2-1.4,3.6-3.2,3.5-4.4C42.2,51.2,40.1,49.8,37.3,49.2z"/>
		<path fill="#F1E6D5" d="M47.6,34.3c0.2,0.3,0.4,0.7,0.6,1l10.5-4.2c-0.5-1.9-1.3-3.7-2.4-5.4c-2.5-3.7-6.1-6.1-10.1-7.1l-2.5,12.1
			C45.2,31.5,46.5,32.7,47.6,34.3z"/>
		<path fill="#F1E6D5" d="M59,33.1l-10.2,3.7c0.7,1.9,0.8,4,0.4,6l6,3.6C58.3,42.6,59.6,37.8,59,33.1z"/>
		<path fill="#F1E6D5" d="M44.6,49.5c-3.8,2.5,1,4,7,0c0.9-0.6,1.8-1.3,2.5-2.1l-5.3-3.4C48,46.2,46.6,48.2,44.6,49.5z"/>
		<path fill="#F1E6D5" d="M42.1,32.1c-0.1,0-0.3-0.1-0.4-0.1c-2,1.9-2.7,5.7-1.4,6.9c0.6,0.3,0.4-1.3,0.4-1.3s-0.4-2.6,2-5.3
			C42.4,32.2,42.3,32.2,42.1,32.1z"/>
		<path fill="#F1E6D5" d="M43.3,38.8c0,0-0.4-2.4,1.8-5.1c-0.2-0.2-0.5-0.4-0.7-0.6c-2,1.9-2.6,5.6-1.4,6.9
			C43.5,40.3,43.3,38.8,43.3,38.8z"/>
		<path fill="#F1E6D5" d="M38.6,31.6c-1.7,1.9-2.3,5.4-1.1,6.6c0.6,0.3,0.4-1.3,0.4-1.3s-0.4-2.6,2-5.3C39.4,31.6,39,31.6,38.6,31.6
			z"/>
	</g>
</g>
</svg>
