<?xml version="1.0" encoding="utf-8"?>
<!-- Generator: Adobe Illustrator 17.1.0, SVG Export Plug-In . SVG Version: 6.00 Build 0)  -->
<!DOCTYPE svg PUBLIC "-//W3C//DTD SVG 1.1//EN" "http://www.w3.org/Graphics/SVG/1.1/DTD/svg11.dtd">
<svg version="1.1" id="레이어_1" xmlns="http://www.w3.org/2000/svg" xmlns:xlink="http://www.w3.org/1999/xlink" x="0px"
	 y="0px" viewBox="0 0 77 77" enable-background="new 0 0 77 77" xml:space="preserve">
<circle fill="#A6A6A5" cx="38.4" cy="38.5" r="36.1"/>
<g>
	<path fill="#EDEDEC" d="M32.7,34.4l-6.3-9.2c0,0,0,0-0.1,0c0,0-0.1,0.1-0.3,0.3L14.8,37.9c0,0.2,0,0.3,0.2,0.3l17.3-3.6
		C32.5,34.7,32.7,34.6,32.7,34.4z M24.3,34c-0.6,0.4-1.4,0.2-1.8-0.4c-0.4-0.6-0.2-1.4,0.4-1.8c0.6-0.4,1.4-0.2,1.8,0.4
		C25,32.8,24.9,33.6,24.3,34z"/>
	<path fill="#EDEDEC" d="M42,30.4l2-12.7c-3.9-0.2-7.8,0.9-11.3,3.2c-1.8,1.2-3.3,2.7-4.6,4.3l4.6,6.9C35.6,30.2,39,29.7,42,30.4z"
		/>
	<path fill="#EDEDEC" d="M37.2,49.2c-3-0.6-5.6-0.1-5.9,1.2c-0.2,1.1,1.4,2.5,3.8,3.2c-2,1.6-3.1,3.4-2.4,4.4
		c0.7,1.1,3.4,0.6,5.9-1.1c2.2-1.4,3.6-3.2,3.5-4.4C42.1,51.2,40,49.8,37.2,49.2z"/>
	<path fill="#EDEDEC" d="M47.5,34.2c0.2,0.3,0.4,0.7,0.6,1l10.5-4.2c-0.5-1.9-1.3-3.7-2.4-5.4c-2.5-3.7-6.1-6.1-10.1-7.1l-2.5,12.1
		C45.1,31.5,46.4,32.7,47.5,34.2z"/>
	<path fill="#EDEDEC" d="M58.9,33.1l-10.2,3.7c0.7,1.9,0.8,4,0.4,6l6,3.6C58.2,42.6,59.5,37.8,58.9,33.1z"/>
	<path fill="#EDEDEC" d="M44.5,49.5c-3.8,2.5,1,4,7,0c0.9-0.6,1.8-1.3,2.5-2.1l-5.3-3.4C47.9,46.2,46.5,48.1,44.5,49.5z"/>
	<path fill="#EDEDEC" d="M42,32.1c-0.1,0-0.3-0.1-0.4-0.1c-2,1.9-2.7,5.7-1.4,6.9c0.6,0.3,0.4-1.3,0.4-1.3s-0.4-2.6,2-5.3
		C42.3,32.2,42.2,32.1,42,32.1z"/>
	<path fill="#EDEDEC" d="M43.2,38.7c0,0-0.4-2.4,1.8-5.1c-0.2-0.2-0.5-0.4-0.7-0.6c-2,1.9-2.6,5.6-1.4,6.9
		C43.4,40.3,43.2,38.7,43.2,38.7z"/>
	<path fill="#EDEDEC" d="M38.5,31.6c-1.7,1.9-2.3,5.4-1.1,6.6c0.6,0.3,0.4-1.3,0.4-1.3s-0.4-2.6,2-5.3
		C39.3,31.6,38.9,31.6,38.5,31.6z"/>
</g>
</svg>
